<?xml version="1.0" encoding="utf-8"?>
<!-- Generator: Adobe Illustrator 14.0.0, SVG Export Plug-In . SVG Version: 6.00 Build 43363)  -->
<!DOCTYPE svg PUBLIC "-//W3C//DTD SVG 1.1//EN" "http://www.w3.org/Graphics/SVG/1.1/DTD/svg11.dtd">
<svg version="1.1" id="Layer_1" xmlns="http://www.w3.org/2000/svg" xmlns:xlink="http://www.w3.org/1999/xlink" x="0px" y="0px"
	 width="30px" height="30px" viewBox="0 0 30 30" enable-background="new 0 0 30 30" xml:space="preserve">
<g display="none">
	<path display="inline" fill="#070107" d="M11.839,5.383V4.473h2.566v0.911c0,0.482,0.395,0.878,0.878,0.878h0.22
		c0.483,0,0.878-0.396,0.878-0.878V4.473h2.567v0.911c0,0.482,0.395,0.878,0.878,0.878h0.22c0.482,0,0.878-0.396,0.878-0.878V4.473
		h0.523l1.672,1.642v2.626h1.757V5.376l-2.71-2.661h-1.242v-0.89c0-0.482-0.396-0.878-0.878-0.878h-0.22
		c-0.483,0-0.878,0.396-0.878,0.878v0.89h-2.567v-0.89c0-0.482-0.395-0.878-0.878-0.878h-0.22c-0.483,0-0.878,0.396-0.878,0.878
		v0.89h-2.566v-0.89c0-0.482-0.396-0.878-0.878-0.878h-0.22c-0.483,0-0.878,0.396-0.878,0.878v0.89H7.296v-0.89
		c0-0.482-0.396-0.878-0.878-0.878h-0.22c-0.483,0-0.878,0.396-0.878,0.878v0.89H1.163v26.337h7.758l0.44-1.757H2.92V4.473h2.4
		v0.911c0,0.482,0.395,0.878,0.878,0.878h0.22c0.483,0,0.878-0.396,0.878-0.878V4.473h2.567v0.911c0,0.482,0.395,0.878,0.878,0.878
		h0.22C11.444,6.262,11.839,5.866,11.839,5.383z"/>
	<path display="inline" fill="#070107" d="M28.701,14.3l-2.812-2.812c-0.684-0.685-1.789-0.697-2.458-0.029
		c-0.001,0.001-0.001,0.001-0.002,0.002v-0.001L13.179,21.712l-0.207,0.204l-1.775,7.085l7.077-1.775l0.661-0.673l0,0l9.793-9.795
		h-0.001c0.001,0,0.001,0,0.002-0.001C29.396,16.089,29.384,14.983,28.701,14.3z M13.698,22.631l3.869,3.868l-3.633,0.91
		L12.8,26.215L13.698,22.631z M18.278,24.105l-2.194-2.194l7.346-7.345l2.193,2.194L18.278,24.105z"/>
</g>
<circle fill="#9E9E9E" cx="14.983" cy="15.182" r="11.378"/>
<g display="none">
	<polygon display="inline" fill="#FFFFFF" points="18.634,9.233 15.166,12.702 11.698,9.234 8.725,12.207 12.193,15.675 
		8.725,19.143 11.698,22.115 15.166,18.646 18.634,22.115 21.606,19.143 18.138,15.675 21.606,12.207 	"/>
</g>
<g display="none">
	<rect x="7.888" y="13.285" display="inline" fill="#FFFFFF" width="14.225" height="4.267"/>
	<path display="inline" fill="#FFFFFF" d="M15,2.091c-7.36,0-13.327,5.967-13.327,13.328c0,7.36,5.967,13.328,13.327,13.328
		c7.361,0,13.327-5.968,13.327-13.328C28.327,8.058,22.361,2.091,15,2.091z M15,26.663c-6.2,0-11.245-5.045-11.245-11.245
		C3.755,9.218,8.8,4.173,15,4.173c6.201,0,11.245,5.044,11.245,11.245C26.245,21.618,21.201,26.663,15,26.663z"/>
</g>
<g>
	<path fill="#FFFFFF" d="M15,1.927c-7.361,0-13.328,5.967-13.328,13.328c0,7.36,5.967,13.328,13.328,13.328
		s13.328-5.968,13.328-13.328C28.328,7.894,22.361,1.927,15,1.927z M15,26.5C8.8,26.5,3.755,21.455,3.755,15.255
		C3.755,9.054,8.8,4.009,15,4.009s11.246,5.044,11.246,11.246C26.246,21.455,21.201,26.5,15,26.5z"/>
</g>
<polygon fill="#FFFFFF" points="17.117,7.76 12.85,7.76 12.85,12.739 7.871,12.739 7.871,17.007 12.85,17.007 12.85,21.985 
	17.117,21.985 17.117,17.007 22.096,17.007 22.096,12.739 17.117,12.739 "/>
</svg>
