<?xml version="1.0" encoding="utf-8"?>
<!-- Generator: Adobe Illustrator 14.0.0, SVG Export Plug-In . SVG Version: 6.00 Build 43363)  -->
<!DOCTYPE svg PUBLIC "-//W3C//DTD SVG 1.1//EN" "http://www.w3.org/Graphics/SVG/1.1/DTD/svg11.dtd">
<svg version="1.1" id="Layer_1" xmlns="http://www.w3.org/2000/svg" xmlns:xlink="http://www.w3.org/1999/xlink" x="0px" y="0px"
	 width="176px" height="112px" viewBox="0 0 176 112" enable-background="new 0 0 176 112" xml:space="preserve">
<pattern  y="112" width="82.078" height="82.078" patternUnits="userSpaceOnUse" id="Plaid_4" viewBox="5.699 -87.777 82.078 82.078" overflow="visible">
	<g>
		<polygon fill="none" points="5.699,-5.699 5.699,-87.777 87.777,-87.777 87.777,-5.699 		"/>
		<polygon fill="#A7A9AC" points="91.197,-43.318 91.197,-47.878 0,-47.878 0,-43.318 		"/>
		<polygon fill="#A7A9AC" points="91.197,-15.959 91.197,-20.52 0,-20.52 0,-15.959 		"/>
		<polygon fill="#A7A9AC" points="91.197,-70.678 91.197,-75.237 0,-75.237 0,-70.678 		"/>
		<polygon fill="#A7A9AC" points="91.197,-52.438 91.197,-56.998 0,-56.998 0,-52.438 		"/>
		<polygon fill="#A7A9AC" points="91.197,-25.078 91.197,-29.639 0,-29.639 0,-25.078 		"/>
		<polygon fill="#A7A9AC" points="91.197,-79.798 91.197,-84.357 0,-84.357 0,-79.798 		"/>
		<polygon fill="#A7A9AC" points="47.879,-91.197 43.318,-91.197 43.318,0 47.879,0 		"/>
		<polygon fill="#A7A9AC" points="75.238,-91.197 70.678,-91.197 70.678,0 75.238,0 		"/>
		<polygon fill="#A7A9AC" points="20.52,-91.197 15.959,-91.197 15.959,0 20.52,0 		"/>
		<polygon fill="#A7A9AC" points="56.998,-91.197 52.438,-91.197 52.438,0 56.998,0 		"/>
		<polygon fill="#A7A9AC" points="84.357,-91.197 79.797,-91.197 79.797,0 84.357,0 		"/>
		<polygon fill="#A7A9AC" points="29.639,-91.197 25.078,-91.197 25.078,0 29.639,0 		"/>
		
			<line fill="none" stroke="#231F20" stroke-width="0.95" stroke-linecap="square" x1="4.893" y1="-36.479" x2="88.537" y2="-36.479"/>
		
			<line fill="none" stroke="#231F20" stroke-width="0.95" stroke-linecap="square" x1="4.893" y1="-9.119" x2="88.537" y2="-9.119"/>
		
			<line fill="none" stroke="#231F20" stroke-width="0.95" stroke-linecap="square" x1="4.893" y1="-63.838" x2="88.537" y2="-63.838"/>
		
			<line fill="none" stroke="#231F20" stroke-width="0.95" stroke-linecap="square" x1="36.479" y1="-88.537" x2="36.479" y2="-4.893"/>
		
			<line fill="none" stroke="#231F20" stroke-width="0.95" stroke-linecap="square" x1="63.838" y1="-88.537" x2="63.838" y2="-4.893"/>
		
			<line fill="none" stroke="#231F20" stroke-width="0.95" stroke-linecap="square" x1="9.119" y1="-88.537" x2="9.119" y2="-4.893"/>
		<polygon fill="#4D4D4F" points="20.52,-70.678 20.52,-75.237 15.959,-75.237 15.959,-70.678 		"/>
		<polygon fill="#4D4D4F" points="29.639,-79.798 29.639,-84.357 25.078,-84.357 25.078,-79.798 		"/>
		<polygon fill="#4D4D4F" points="29.639,-70.678 29.639,-75.237 25.078,-75.237 25.078,-70.678 		"/>
		<polygon fill="#4D4D4F" points="20.52,-79.798 20.52,-84.357 15.959,-84.357 15.959,-79.798 		"/>
		<polygon fill="#4D4D4F" points="47.879,-70.678 47.879,-75.237 43.318,-75.237 43.318,-70.678 		"/>
		<polygon fill="#4D4D4F" points="56.998,-79.798 56.998,-84.357 52.438,-84.357 52.438,-79.798 		"/>
		<polygon fill="#4D4D4F" points="56.998,-70.678 56.998,-75.237 52.438,-75.237 52.438,-70.678 		"/>
		<polygon fill="#4D4D4F" points="47.879,-79.798 47.879,-84.357 43.318,-84.357 43.318,-79.798 		"/>
		<polygon fill="#4D4D4F" points="75.238,-70.678 75.238,-75.237 70.678,-75.237 70.678,-70.678 		"/>
		<polygon fill="#4D4D4F" points="84.357,-79.798 84.357,-84.357 79.797,-84.357 79.797,-79.798 		"/>
		<polygon fill="#4D4D4F" points="84.357,-70.678 84.357,-75.237 79.797,-75.237 79.797,-70.678 		"/>
		<polygon fill="#4D4D4F" points="75.238,-79.798 75.238,-84.357 70.678,-84.357 70.678,-79.798 		"/>
		<polygon fill="#4D4D4F" points="20.52,-43.318 20.52,-47.878 15.959,-47.878 15.959,-43.318 		"/>
		<polygon fill="#4D4D4F" points="29.639,-52.438 29.639,-56.998 25.078,-56.998 25.078,-52.438 		"/>
		<polygon fill="#4D4D4F" points="29.639,-43.318 29.639,-47.878 25.078,-47.878 25.078,-43.318 		"/>
		<polygon fill="#4D4D4F" points="20.52,-52.438 20.52,-56.998 15.959,-56.998 15.959,-52.438 		"/>
		<polygon fill="#4D4D4F" points="47.879,-43.318 47.879,-47.878 43.318,-47.878 43.318,-43.318 		"/>
		<polygon fill="#4D4D4F" points="56.998,-52.438 56.998,-56.998 52.438,-56.998 52.438,-52.438 		"/>
		<polygon fill="#4D4D4F" points="56.998,-43.318 56.998,-47.878 52.438,-47.878 52.438,-43.318 		"/>
		<polygon fill="#4D4D4F" points="47.879,-52.438 47.879,-56.998 43.318,-56.998 43.318,-52.438 		"/>
		<polygon fill="#4D4D4F" points="75.238,-43.318 75.238,-47.878 70.678,-47.878 70.678,-43.318 		"/>
		<polygon fill="#4D4D4F" points="84.357,-52.438 84.357,-56.998 79.797,-56.998 79.797,-52.438 		"/>
		<polygon fill="#4D4D4F" points="84.357,-43.318 84.357,-47.878 79.797,-47.878 79.797,-43.318 		"/>
		<polygon fill="#4D4D4F" points="75.238,-52.438 75.238,-56.998 70.678,-56.998 70.678,-52.438 		"/>
		<polygon fill="#4D4D4F" points="20.52,-15.959 20.52,-20.52 15.959,-20.52 15.959,-15.959 		"/>
		<polygon fill="#4D4D4F" points="29.639,-25.078 29.639,-29.639 25.078,-29.639 25.078,-25.078 		"/>
		<polygon fill="#4D4D4F" points="29.639,-15.959 29.639,-20.52 25.078,-20.52 25.078,-15.959 		"/>
		<polygon fill="#4D4D4F" points="20.52,-25.078 20.52,-29.639 15.959,-29.639 15.959,-25.078 		"/>
		<polygon fill="#4D4D4F" points="47.879,-15.959 47.879,-20.52 43.318,-20.52 43.318,-15.959 		"/>
		<polygon fill="#4D4D4F" points="56.998,-25.078 56.998,-29.639 52.438,-29.639 52.438,-25.078 		"/>
		<polygon fill="#4D4D4F" points="56.998,-15.959 56.998,-20.52 52.438,-20.52 52.438,-15.959 		"/>
		<polygon fill="#4D4D4F" points="47.879,-25.078 47.879,-29.639 43.318,-29.639 43.318,-25.078 		"/>
		<polygon fill="#4D4D4F" points="75.238,-15.959 75.238,-20.52 70.678,-20.52 70.678,-15.959 		"/>
		<polygon fill="#4D4D4F" points="84.357,-25.078 84.357,-29.639 79.797,-29.639 79.797,-25.078 		"/>
		<polygon fill="#4D4D4F" points="84.357,-15.959 84.357,-20.52 79.797,-20.52 79.797,-15.959 		"/>
		<polygon fill="#4D4D4F" points="75.238,-25.078 75.238,-29.639 70.678,-29.639 70.678,-25.078 		"/>
	</g>
</pattern>
<rect opacity="0.17" fill="url(#Plaid_4)" stroke="#000102" width="176" height="112"/>
<g>
	<g>
		<rect x="38.42" y="8.677" display="none" fill="none" width="96.845" height="96.833"/>
		<g>
			<path display="none" fill="#C6C4C5" d="M135.266,90.25c0,8.422-6.835,15.26-15.253,15.26H53.706
				c-8.458,0-15.286-6.838-15.286-15.26V23.943c0-8.422,6.828-15.266,15.286-15.266h66.307c8.418,0,15.253,6.844,15.253,15.266
				V90.25z"/>
			<g>
				<path fill="#AAAAAA" stroke="#CCCACA" stroke-width="0.75" d="M132.379,58.426c0,24.922-20.219,45.125-45.14,45.125
					c-24.906,0-45.124-20.203-45.124-45.125c0-24.935,20.218-45.117,45.124-45.117C112.16,13.309,132.379,33.491,132.379,58.426z"/>
				<path fill="#AAAAAA" stroke="#CCCACA" stroke-width="0.75" d="M146.771,33.75v50.299c0,0-1.066,5.432-4.012,0V56.084
					l-3.273-3.278l0.332-16.401C139.817,36.405,142.028,29.989,146.771,33.75z"/>
				<path fill="#AAAAAA" stroke="#CCCACA" stroke-width="0.75" d="M27.423,32.085c0,0-6.972,12.759,0.519,17.346v32.821
					c0,0,1.604,5.74,3.931,0V49.278c0,0,7.887-2.15,0.789-17.193l-0.856,11.452l-1.37-11.48l-1.848,11.716L27.423,32.085z"/>
			</g>
		</g>
	</g>
</g>
<path fill="#FFFFFF" stroke="#CCCCCC" stroke-width="0.75" d="M116.867,58.514c0,16.355-13.27,29.613-29.625,29.613
	c-16.346,0-29.615-13.258-29.615-29.613c0-16.364,13.269-29.61,29.615-29.61C103.598,28.904,116.867,42.149,116.867,58.514z"/>
</svg>
